<?xml version="1.0" standalone="no"?>
<!DOCTYPE svg PUBLIC "-//W3C//DTD SVG 20010904//EN"
 "http://www.w3.org/TR/2001/REC-SVG-20010904/DTD/svg10.dtd">
<svg version="1.0" xmlns="http://www.w3.org/2000/svg"
 width="512.000000pt" height="512.000000pt" viewBox="0 0 512.000000 512.000000"
 preserveAspectRatio="xMidYMid meet">
<metadata>
Created by potrace 1.13, written by Peter Selinger 2001-2015
</metadata>
<g transform="translate(0.000000,512.000000) scale(0.100000,-0.100000)"
fill="#000000" stroke="none">
<path d="M4215 3536 c-66 -13 -239 -51 -385 -84 -236 -54 -270 -60 -310 -51
-70 16 -207 13 -285 -6 -39 -10 -72 -21 -75 -25 -3 -3 -18 -14 -35 -23 -27
-14 -146 -17 -1170 -25 -1045 -8 -1145 -10 -1195 -26 -147 -47 -250 -133 -318
-264 -150 -287 -162 -659 -35 -1017 87 -244 211 -388 428 -498 117 -59 195
-79 336 -84 145 -6 235 8 383 61 51 18 493 235 982 482 812 410 895 450 954
457 119 14 238 59 335 128 22 16 67 35 100 44 137 37 445 115 466 119 144 26
243 92 298 199 22 43 71 225 71 265 0 19 -5 22 -38 22 -51 0 -84 36 -107 115
-22 77 -40 112 -79 153 -73 79 -147 92 -321 58z m151 -31 c32 -9 65 -29 93
-57 50 -49 103 -154 105 -206 l1 -36 -270 -73 c-148 -39 -275 -72 -280 -72 -6
-1 -23 28 -39 64 -36 82 -97 151 -188 211 -48 33 -66 49 -57 54 13 7 421 99
524 118 28 6 53 10 56 11 3 0 28 -6 55 -14z m-810 -126 c161 -50 295 -142 342
-235 31 -62 36 -94 7 -44 -15 25 -41 60 -58 79 -70 73 -222 160 -347 197 -56
17 -67 23 -44 23 18 1 63 -9 100 -20z m-102 -5 c127 -33 317 -142 387 -222 37
-41 79 -127 79 -159 0 -17 -6 -23 -23 -23 -18 0 -28 11 -45 48 -74 162 -272
308 -479 352 -87 18 -88 19 -34 19 29 1 81 -6 115 -15z m-130 -108 c81 -23
146 -60 201 -115 53 -53 102 -146 111 -211 5 -40 3 -50 -20 -76 -28 -34 -62
-47 -316 -114 -480 -128 -1189 -322 -1213 -332 -33 -13 -77 -63 -77 -86 0 -9
-13 -44 -29 -78 -45 -96 -82 -119 -282 -179 -13 -4 -12 8 8 86 30 121 38 250
24 379 -41 350 -169 584 -377 686 l-78 39 579 7 c319 4 672 9 785 11 376 7
619 1 684 -17z m261 -36 c82 -47 141 -105 174 -172 38 -76 39 -88 4 -88 -25 0
-34 11 -82 101 -51 94 -81 129 -141 171 -41 28 -11 20 45 -12z m-2401 -49 c33
-12 78 -32 100 -45 62 -37 141 -124 174 -191 31 -63 85 -223 97 -287 7 -36 7
-37 -32 -44 -21 -4 -189 -35 -373 -68 l-335 -61 -8 -50 c-9 -60 0 -178 19
-254 59 -225 201 -331 444 -331 136 0 258 34 488 136 78 35 145 64 147 64 8 0
-34 -100 -60 -144 -61 -104 -40 -94 -460 -207 -431 -115 -402 -113 -542 -43
-128 64 -237 182 -304 330 -104 229 -144 585 -91 798 74 295 264 434 577 422
67 -3 120 -11 159 -25z m3506 -24 c0 -8 -9 -49 -20 -92 -32 -127 -90 -200
-195 -246 -42 -19 -507 -149 -532 -149 -8 0 -3 19 13 54 14 30 33 98 44 152
12 62 25 104 38 116 12 13 107 42 283 88 145 38 278 74 294 79 45 14 75 13 75
-2z m-973 -339 c-3 -8 -6 -5 -6 6 -1 11 2 17 5 13 3 -3 4 -12 1 -19z m-107
-51 c0 -42 -65 -160 -113 -204 -48 -44 -359 -204 -952 -490 -235 -114 -312
-146 -408 -172 -65 -17 -120 -31 -122 -31 -2 0 9 28 24 63 42 93 59 151 80
277 15 94 23 118 43 135 15 13 233 83 623 199 330 98 647 194 705 211 129 40
120 40 120 12z m-2022 -293 c19 -134 11 -267 -20 -335 -33 -73 -80 -124 -142
-157 -46 -24 -62 -27 -152 -27 -96 0 -105 2 -170 35 -116 59 -172 156 -181
317 -7 103 -1 128 34 141 16 6 143 32 283 57 140 25 269 49 285 54 17 5 35 8
40 7 6 -2 16 -43 23 -92z"/>
<path d="M4193 3430 c-29 -4 -101 -25 -160 -46 l-108 -39 72 -3 c64 -3 89 2
205 42 90 31 123 45 101 46 -17 0 -37 2 -45 4 -7 2 -37 0 -65 -4z"/>
<path d="M4265 3296 c-230 -66 -229 -65 -209 -87 47 -52 163 -43 328 27 l88
37 -38 23 c-47 29 -67 29 -169 0z"/>
<path d="M2860 3197 l-95 -10 50 -23 c90 -42 143 -41 465 10 8 1 -9 10 -39 19
-62 19 -222 21 -381 4z"/>
<path d="M2140 3185 c-151 -7 -299 -14 -328 -14 l-52 -1 43 -52 c23 -29 52
-69 64 -88 32 -52 78 -198 104 -327 12 -62 27 -113 33 -113 6 0 202 37 435 82
l424 83 -6 75 c-12 172 -92 292 -227 339 -79 27 -179 30 -490 16z"/>
<path d="M3335 3063 c-16 -2 -108 -15 -204 -28 -95 -14 -175 -25 -178 -25 -5
0 2 -39 18 -101 l9 -36 207 39 c319 58 313 57 313 78 0 10 -16 32 -35 49 -36
31 -52 34 -130 24z"/>
<path d="M812 3060 c-55 -12 -126 -47 -154 -77 l-21 -23 371 0 c205 0 372 4
372 8 0 11 -36 49 -65 68 -19 12 -55 17 -147 19 -68 1 -166 5 -218 8 -52 3
-114 2 -138 -3z"/>
<path d="M1155 2803 c-263 -22 -572 -56 -579 -63 -5 -5 -11 -43 -14 -84 -4
-69 -3 -74 14 -71 11 3 219 34 464 71 245 36 447 68 449 70 8 8 -35 59 -60 71
-23 12 -170 15 -274 6z"/>
<path d="M647 2406 c-37 -7 -70 -15 -73 -19 -8 -8 15 -145 26 -152 9 -6 122
15 133 24 8 8 -3 162 -12 160 -3 -1 -36 -7 -74 -13z"/>
<path d="M694 2067 l-61 -22 14 -41 c8 -23 29 -59 47 -80 l33 -38 64 28 c35
16 65 30 67 31 2 2 -8 19 -22 40 -14 20 -31 52 -38 71 -14 39 -21 40 -104 11z"/>
<path d="M946 1792 c-27 -15 -51 -32 -53 -37 -3 -11 44 -43 92 -62 53 -20 126
-16 182 12 52 26 80 51 70 61 -10 10 -182 54 -212 54 -16 0 -52 -13 -79 -28z"/>
<path d="M4510 3024 c-25 -7 -117 -32 -204 -55 -170 -43 -196 -55 -214 -95
-11 -23 -17 -84 -8 -84 11 0 247 51 281 61 95 27 154 75 179 147 8 23 14 42
13 41 -1 0 -22 -7 -47 -15z"/>
<path d="M3355 2631 c-60 -22 -223 -80 -360 -129 -138 -49 -341 -120 -452
-156 -173 -58 -208 -73 -246 -106 -25 -22 -52 -57 -60 -78 -15 -38 -33 -152
-24 -152 6 0 555 255 967 448 241 113 257 122 288 166 43 58 35 59 -113 7z"/>
<path d="M1293 2368 l-201 -40 15 -51 c8 -29 16 -53 17 -54 4 -4 151 25 219
43 109 28 153 59 172 122 8 27 25 29 -222 -20z"/>
<path d="M1376 2149 c-76 -26 -141 -50 -144 -53 -10 -11 55 -29 118 -33 56 -4
70 -1 100 19 33 22 75 88 68 107 -2 5 -65 -13 -142 -40z"/>
</g>
</svg>
